/* XPM */
static char * en_xpm[] = {
"64 48 229 2",
"  	c None",
". 	c #050591",
"+ 	c #06069A",
"@ 	c #050699",
"# 	c #D30002",
"$ 	c #E40000",
"% 	c #06069D",
"& 	c #0707A7",
"* 	c #3232B4",
"= 	c #0808A8",
"- 	c #0707A8",
"; 	c #1515AB",
"> 	c #2424B0",
", 	c #3131B4",
"' 	c #0707A6",
") 	c #2F2FB3",
"! 	c #0909A7",
"~ 	c #2929B2",
"{ 	c #2F2FB4",
"] 	c #0608A5",
"^ 	c #E50002",
"/ 	c #F80000",
"( 	c #4848BD",
"_ 	c #D8D8ED",
": 	c #1919AD",
"< 	c #9292D5",
"[ 	c #A0A0DA",
"} 	c #1616AC",
"| 	c #CACAE8",
"1 	c #5454C0",
"2 	c #3737B7",
"3 	c #DDDDEE",
"4 	c #2020AF",
"5 	c #7070CA",
"6 	c #B6B6E1",
"7 	c #0D0DA9",
"8 	c #B2B2E0",
"9 	c #7C7CCE",
"0 	c #0708A5",
"a 	c #1F1FAF",
"b 	c #4949BC",
"c 	c #0808A7",
"d 	c #1515AC",
"e 	c #3333B5",
"f 	c #3939B7",
"g 	c #0909A8",
"h 	c #1313AB",
"i 	c #4E4EBE",
"j 	c #0F0FA9",
"k 	c #3D3DB8",
"l 	c #3434B5",
"m 	c #3333B6",
"n 	c #0607A5",
"o 	c #DB3A3C",
"p 	c #EC3E3E",
"q 	c #A6A6DC",
"r 	c #4242BA",
"s 	c #3535B6",
"t 	c #ADADDE",
"u 	c #2121AF",
"v 	c #5E5EC3",
"w 	c #9898D7",
"x 	c #0C0CA9",
"y 	c #0B0BA8",
"z 	c #A1A1DA",
"A 	c #5353BF",
"B 	c #2A2AB2",
"C 	c #AEAEDE",
"D 	c #0606A3",
"E 	c #E5E5E7",
"F 	c #F8F8F8",
"G 	c #7878CC",
"H 	c #1717AC",
"I 	c #8F8FD3",
"J 	c #4040B9",
"K 	c #6F6FC9",
"L 	c #6C6CC8",
"M 	c #4D4DBE",
"N 	c #9393D5",
"O 	c #3B3BB8",
"P 	c #1212AA",
"Q 	c #2E2EB3",
"R 	c #0A0AA7",
"S 	c #0808A6",
"T 	c #3737B6",
"U 	c #0B0BA7",
"V 	c #3C3CB9",
"W 	c #DDDDEF",
"X 	c #8282D0",
"Y 	c #0A0AA8",
"Z 	c #1212AB",
"` 	c #C2C2E5",
" .	c #5A5AC2",
"..	c #2E2EB4",
"+.	c #2626B1",
"@.	c #6262C5",
"#.	c #1010AA",
"$.	c #A8A8DD",
"%.	c #7979CC",
"&.	c #0707A5",
"*.	c #D03A3C",
"=.	c #E03E3E",
"-.	c #2B2BB3",
";.	c #3C3CB8",
">.	c #0F0FAA",
",.	c #2222B0",
"'.	c #2C2CB3",
").	c #1111AA",
"!.	c #6868C7",
"~.	c #2525B0",
"{.	c #1C1CAD",
"].	c #1A1AAD",
"^.	c #6363C5",
"/.	c #0B0BA9",
"(.	c #6060C4",
"_.	c #3030B4",
":.	c #6969C7",
"<.	c #1B1BAD",
"[.	c #B4B4E1",
"}.	c #4B4BBD",
"|.	c #DCDCEF",
"1.	c #6464C6",
"2.	c #AFAFDE",
"3.	c #A4A4DB",
"4.	c #D7D7ED",
"5.	c #0E0EA9",
"6.	c #1818AD",
"7.	c #1414AB",
"8.	c #1818AC",
"9.	c #0607A4",
"0.	c #D0BFC1",
"a.	c #E0CECE",
"b.	c #2D2DB3",
"c.	c #8D8DD4",
"d.	c #4C4CBD",
"e.	c #8383D0",
"f.	c #0C0CA8",
"g.	c #8686D1",
"h.	c #2727B1",
"i.	c #8181CF",
"j.	c #5858C1",
"k.	c #0707A3",
"l.	c #1D1DAE",
"m.	c #5555C1",
"n.	c #8282CF",
"o.	c #4343BA",
"p.	c #1313AA",
"q.	c #3E3EB9",
"r.	c #8F8FD4",
"s.	c #6565C6",
"t.	c #2525B1",
"u.	c #DBB5B7",
"v.	c #ECC4C4",
"w.	c #BDBDE3",
"x.	c #4A4ABC",
"y.	c #C9C9E8",
"z.	c #6D6DC8",
"A.	c #A9A9DD",
"B.	c #B4B4E0",
"C.	c #6363C4",
"D.	c #CECEE9",
"E.	c #2B2BB2",
"F.	c #6767C6",
"G.	c #3232B5",
"H.	c #4F4FBF",
"I.	c #6A6AC8",
"J.	c #4646BB",
"K.	c #3636B6",
"L.	c #0D0DA8",
"M.	c #3F3FB9",
"N.	c #3838B7",
"O.	c #4141BA",
"P.	c #E3E3F1",
"Q.	c #8888D2",
"R.	c #A5A5DC",
"S.	c #C5C5E7",
"T.	c #E4E4F1",
"U.	c #ABABDE",
"V.	c #7F7FCF",
"W.	c #DB7375",
"X.	c #EC7C7C",
"Y.	c #2323B0",
"Z.	c #1C1CAE",
"`.	c #8E8ED4",
" +	c #2828B1",
".+	c #8C8CD3",
"++	c #8787D1",
"@+	c #7777CC",
"#+	c #4C4CBE",
"$+	c #BCBCE3",
"%+	c #494ABD",
"&+	c #9090D4",
"*+	c #7E7ECE",
"=+	c #2020B0",
"-+	c #2A2AB3",
";+	c #2828B2",
">+	c #2929B3",
",+	c #DB1C1E",
"'+	c #EC1E1E",
")+	c #4444BB",
"!+	c #C8C8E7",
"~+	c #1919AC",
"{+	c #BEBEE3",
"]+	c #4E4EBD",
"^+	c #C7C7E7",
"/+	c #6666C6",
"(+	c #A8A8DC",
"_+	c #AAAADD",
":+	c #5959C2",
"<+	c #4848BC",
"[+	c #4A4ABD",
"}+	c #22229E",
"|+	c #2525A9",
"1+	c #2425A8",
"2+	c #DD1E20",
"3+	c #E7E7E7",
"4+	c #DD7474",
"5+	c #E70000",
"6+	c #DDAEAE",
"7+	c #ECBABA",
"8+	c #DFD5D5",
"9+	c #EEE4E4",
"0+	c #E50000",
"a+	c #F50000",
"b+	c #DD5858",
"c+	c #EC5E5E",
"d+	c #DD3A3A",
"e+	c #DF0000",
"f+	c #EE0000",
". + + + + + + + + + + + + + + + + + + + + + + + + + + @ # $ $ $ $ $ $ $ $ $ $ $ $ $ $ $ $ $ $ $ $ $ $ $ $ $ $ $ $ $ $ $ $ $ $ $ ",
"% & * & = - ; > & = & , ' = = & ) & = = ! ~ & = & { ! ] ^ / / / / / / / / / / / / / / / / / / / / / / / / / / / / / / / / / / / ",
"% ( _ : = & < [ = = } | 1 = = 2 3 4 = = 5 6 7 = 7 8 9 0 ^ / / / / / / / / / / / / / / / / / / / / / / / / / / / / / / / / / / / ",
"% a b c d & { e = ; & f ~ g h h i j } - ~ k - } = l m n o p p p p p p p p p p p p p p p p p p p p p p p p p p p p p p p p p p p ",
"% = = ; q r = = s t u = - v w x = y z A & = B C B = = D E F F F F F F F F F F F F F F F F F F F F F F F F F F F F F F F F F F F ",
"% = = & G f = = H I y = = J K & = & L M = = j N ; = = D E F F F F F F F F F F F F F F F F F F F F F F F F F F F F F F F F F F F ",
"% & O & = & P Q & & & k R = & & l & = & S , & & & T U D E F F F F F F F F F F F F F F F F F F F F F F F F F F F F F F F F F F F ",
"% V W : = c X z Y = Z `  .= = ..W +.= = @.6 #.= y $.%.&.*.=.=.=.=.=.=.=.=.=.=.=.=.=.=.=.=.=.=.=.=.=.=.=.=.=.=.=.=.=.=.=.=.=.=.=.",
"% : f = = = > -.= = & B ~ = = h ;.>.= = ,.l & = = +.'.] ^ / / / / / / / / / / / / / / / / / / / / / / / / / / / / / / / / / / / ",
"% = = ).!.~.= = {.K ].= & Q ^.x = /.(._.= = H :.<.= = ] ^ / / / / / / / / / / / / / / / / / / / / / / / / / / / / / / / / / / / ",
"% = = Y [.}.= = {.|.; = = 1.2.= = & 3.:.= = h 4.> = = ] ^ / / / / / / / / / / / / / / / / / / / / / / / / / / / / / / / / / / / ",
"% = 5.& P 6.& 5.7 7.>.>.c ).8.- x & 7.} & 5.Y P ).5.g 9.0.a.a.a.a.a.a.a.a.a.a.a.a.a.a.a.a.a.a.a.a.a.a.a.a.a.a.a.a.a.a.a.a.a.a.a.",
"% b.c.{.= & d.e.f.= ).g.r = = ~.e.h.= = ;.i.#.= Y G j.k.E F F F F F F F F F F F F F F F F F F F F F F F F F F F F F F F F F F F ",
"% l.8 ! = = m.G = = & n.o.= = y 8 p.= = q.r.& = = !.s.D E F F F F F F F F F F F F F F F F F F F F F F F F F F F F F F F F F F F ",
"% Y g g +.& Y 7 - ~.& x y x u Y c /.t.g Y f.& +.= y y 9.u.v.v.v.v.v.v.v.v.v.v.v.v.v.v.v.v.v.v.v.v.v.v.v.v.v.v.v.v.v.v.v.v.v.v.v.",
"% = = ; w.x.= = T y.u = & z.A.x = x B.C.& = ~ D.E.= = ] ^ / / / / / / / / / / / / / / / / / / / / / / / / / / / / / / / / / / / ",
"% = & & m...= & 7.F.g & = G.H.& & & M ;.= & y I.7.& = ] ^ / / / / / / / / / / / / / / / / / / / / / / / / / / / / / / / / / / / ",
"% c J.c = = 8.K.= = c J L.= = c q.! = = R M.c = = N.j ] ^ / / / / / / / / / / / / / / / / / / / / / / / / / / / / / / / / / / / ",
"% O.P.8.= c Q.R.g = P S.s.= = , T.h.= = :.S.>.= Y U.V.9.W.X.X.X.X.X.X.X.X.X.X.X.X.X.X.X.X.X.X.X.X.X.X.X.X.X.X.X.X.X.X.X.X.X.X.X.",
"% H ~ g f.& l.,.= f.& a Y.& Y 7 ..>./.c 4 +.& /.= Z.> D E F F F F F F F F F F F F F F F F F F F F F F F F F F F F F F F F F F F ",
"% = = #.`.k = =  +.++.= & J ++5.= g @+#+= = 4 .+'.= = D E F F F F F F F F F F F F F F F F F F F F F F F F F F F F F F F F F F F ",
"% = = & ++#+= = #.$+; = = %+&+& = & *+1.= = g [.t.= = D E F F F F F F F F F F F F F F F F F F F F F F F F F F F F F F F F F F F ",
"% - B = Y 5.Z =+g ! 7 -+c g 7 = ;+= Y f.g > g Y Y >+c n ,+'+'+'+'+'+'+'+'+'+'+'+'+'+'+'+'+'+'+'+'+'+'+'+'+'+'+'+'+'+'+'+'+'+'+'+",
"% )+!+~+= & ++N c = } {+]+= = s ^+4 = = /+(+7 = 7 _+K 0 ^ / / / / / / / / / / / / / / / / / / / / / / / / / / / / / / / / / / / ",
"% 4 :+c = = T k = = c <+b.= = 7.(.j = = { [+= = = M.O ] ^ / / / / / / / / / / / / / / / / / / / / / / / / / / / / / / / / / / / ",
"}+|+|+|+|+|+|+|+|+|+|+|+|+|+|+|+|+|+|+|+|+|+|+|+|+|+|+1+2+'+'+'+'+'+'+'+'+'+'+'+'+'+'+'+'+'+'+'+'+'+'+'+'+'+'+'+'+'+'+'+'+'+'+'+",
"3+F F F F F F F F F F F F F F F F F F F F F F F F F F F F F F F F F F F F F F F F F F F F F F F F F F F F F F F F F F F F F F F ",
"3+F F F F F F F F F F F F F F F F F F F F F F F F F F F F F F F F F F F F F F F F F F F F F F F F F F F F F F F F F F F F F F F ",
"3+F F F F F F F F F F F F F F F F F F F F F F F F F F F F F F F F F F F F F F F F F F F F F F F F F F F F F F F F F F F F F F F ",
"4+X.X.X.X.X.X.X.X.X.X.X.X.X.X.X.X.X.X.X.X.X.X.X.X.X.X.X.X.X.X.X.X.X.X.X.X.X.X.X.X.X.X.X.X.X.X.X.X.X.X.X.X.X.X.X.X.X.X.X.X.X.X.X.",
"5+/ / / / / / / / / / / / / / / / / / / / / / / / / / / / / / / / / / / / / / / / / / / / / / / / / / / / / / / / / / / / / / / ",
"5+/ / / / / / / / / / / / / / / / / / / / / / / / / / / / / / / / / / / / / / / / / / / / / / / / / / / / / / / / / / / / / / / ",
"5+/ / / / / / / / / / / / / / / / / / / / / / / / / / / / / / / / / / / / / / / / / / / / / / / / / / / / / / / / / / / / / / / ",
"6+7+7+7+7+7+7+7+7+7+7+7+7+7+7+7+7+7+7+7+7+7+7+7+7+7+7+7+7+7+7+7+7+7+7+7+7+7+7+7+7+7+7+7+7+7+7+7+7+7+7+7+7+7+7+7+7+7+7+7+7+7+7+7+",
"3+F F F F F F F F F F F F F F F F F F F F F F F F F F F F F F F F F F F F F F F F F F F F F F F F F F F F F F F F F F F F F F F ",
"3+F F F F F F F F F F F F F F F F F F F F F F F F F F F F F F F F F F F F F F F F F F F F F F F F F F F F F F F F F F F F F F F ",
"8+9+9+9+9+9+9+9+9+9+9+9+9+9+9+9+9+9+9+9+9+9+9+9+9+9+9+9+9+9+9+9+9+9+9+9+9+9+9+9+9+9+9+9+9+9+9+9+9+9+9+9+9+9+9+9+9+9+9+9+9+9+9+9+",
"0+a+a+a+a+a+a+a+a+a+a+a+a+a+a+a+a+a+a+a+a+a+a+a+a+a+a+a+a+a+a+a+a+a+a+a+a+a+a+a+a+a+a+a+a+a+a+a+a+a+a+a+a+a+a+a+a+a+a+a+a+a+a+a+",
"5+/ / / / / / / / / / / / / / / / / / / / / / / / / / / / / / / / / / / / / / / / / / / / / / / / / / / / / / / / / / / / / / / ",
"5+/ / / / / / / / / / / / / / / / / / / / / / / / / / / / / / / / / / / / / / / / / / / / / / / / / / / / / / / / / / / / / / / ",
"b+c+c+c+c+c+c+c+c+c+c+c+c+c+c+c+c+c+c+c+c+c+c+c+c+c+c+c+c+c+c+c+c+c+c+c+c+c+c+c+c+c+c+c+c+c+c+c+c+c+c+c+c+c+c+c+c+c+c+c+c+c+c+c+",
"3+F F F F F F F F F F F F F F F F F F F F F F F F F F F F F F F F F F F F F F F F F F F F F F F F F F F F F F F F F F F F F F F ",
"3+F F F F F F F F F F F F F F F F F F F F F F F F F F F F F F F F F F F F F F F F F F F F F F F F F F F F F F F F F F F F F F F ",
"3+F F F F F F F F F F F F F F F F F F F F F F F F F F F F F F F F F F F F F F F F F F F F F F F F F F F F F F F F F F F F F F F ",
"d+p p p p p p p p p p p p p p p p p p p p p p p p p p p p p p p p p p p p p p p p p p p p p p p p p p p p p p p p p p p p p p p ",
"5+/ / / / / / / / / / / / / / / / / / / / / / / / / / / / / / / / / / / / / / / / / / / / / / / / / / / / / / / / / / / / / / / ",
"5+/ / / / / / / / / / / / / / / / / / / / / / / / / / / / / / / / / / / / / / / / / / / / / / / / / / / / / / / / / / / / / / / ",
"e+f+f+f+f+f+f+f+f+f+f+f+f+f+f+f+f+f+f+f+f+f+f+f+f+f+f+f+f+f+f+f+f+f+f+f+f+f+f+f+f+f+f+f+f+f+f+f+f+f+f+f+f+f+f+f+f+f+f+f+f+f+f+f+"};
