/* XPM */
static char * es_xpm[] = {
"64 48 336 2",
"  	c None",
". 	c #FC0404",
"+ 	c #FC0303",
"@ 	c #FB0303",
"# 	c #FB1103",
"$ 	c #FBD103",
"% 	c #FBD005",
"& 	c #FAD008",
"* 	c #FBFB03",
"= 	c #F8F405",
"- 	c #EFEE0B",
"; 	c #D7D122",
"> 	c #FAF805",
", 	c #F4F506",
"' 	c #F6F905",
") 	c #E7DA17",
"! 	c #C09643",
"~ 	c #FBFB04",
"{ 	c #F9F907",
"] 	c #F1EC0F",
"^ 	c #DBD82D",
"/ 	c #B3AE29",
"( 	c #967A47",
"_ 	c #6F6150",
": 	c #AA9748",
"< 	c #B6B33B",
"[ 	c #D2D226",
"} 	c #E7E90B",
"| 	c #E4E212",
"1 	c #B3A33B",
"2 	c #A8976C",
"3 	c #8A5F49",
"4 	c #9D6240",
"5 	c #4F342A",
"6 	c #BB5A46",
"7 	c #69463D",
"8 	c #9B7852",
"9 	c #A3952A",
"0 	c #F5F50A",
"a 	c #BFBB0F",
"b 	c #955436",
"c 	c #C13E32",
"d 	c #783E33",
"e 	c #B12019",
"f 	c #60392D",
"g 	c #C41B16",
"h 	c #6F312A",
"i 	c #D61E16",
"j 	c #9C412C",
"k 	c #E8EB1E",
"l 	c #FBFA05",
"m 	c #CECA1B",
"n 	c #79421C",
"o 	c #B02825",
"p 	c #8A3733",
"q 	c #853634",
"r 	c #7C3832",
"s 	c #B12821",
"t 	c #9F3331",
"u 	c #A63333",
"v 	c #94724D",
"w 	c #F1E80E",
"x 	c #FBFB06",
"y 	c #E0D21F",
"z 	c #E2C61E",
"A 	c #F6F607",
"B 	c #BBB41C",
"C 	c #714737",
"D 	c #4C382F",
"E 	c #4B2020",
"F 	c #421B1B",
"G 	c #5B2422",
"H 	c #992B2B",
"I 	c #8F6A42",
"J 	c #DFD934",
"K 	c #F5F20C",
"L 	c #D9C520",
"M 	c #DECD28",
"N 	c #F8F40A",
"O 	c #FAF114",
"P 	c #775731",
"Q 	c #8D572D",
"R 	c #EBEA0F",
"S 	c #E9E90A",
"T 	c #917732",
"U 	c #463E33",
"V 	c #622528",
"W 	c #722422",
"X 	c #672B27",
"Y 	c #5C4944",
"Z 	c #C9B458",
"` 	c #EBDC2C",
" .	c #E2DF1C",
"..	c #8C603C",
"+.	c #A47D35",
"@.	c #F5ED11",
"#.	c #F3DA0B",
"$.	c #967A39",
"%.	c #947B3A",
"&.	c #DCD018",
"*.	c #C05D0C",
"=.	c #BD2C12",
"-.	c #96100F",
";.	c #D31616",
">.	c #B5655B",
",.	c #D4C1BE",
"'.	c #A79E9F",
").	c #BEA885",
"!.	c #ADA576",
"~.	c #C6C02B",
"{.	c #A38544",
"].	c #9B8C47",
"^.	c #E6E218",
"/.	c #E3DD07",
"(.	c #907E55",
"_.	c #917D3B",
":.	c #DCC521",
"<.	c #D62B0D",
"[.	c #86080A",
"}.	c #6F1921",
"|.	c #D51116",
"1.	c #CC6C68",
"2.	c #9D9490",
"3.	c #7F7174",
"4.	c #9F886A",
"5.	c #A69E82",
"6.	c #C1B424",
"7.	c #AD9875",
"8.	c #937E41",
"9.	c #ECE60E",
"0.	c #F4EA03",
"a.	c #C8BCA3",
"b.	c #A68C62",
"c.	c #E9CE0E",
"d.	c #D13010",
"e.	c #532A33",
"f.	c #534057",
"g.	c #9E1F2E",
"h.	c #D37371",
"i.	c #8F8286",
"j.	c #6A5160",
"k.	c #9D918F",
"l.	c #ABA299",
"m.	c #C7BC2D",
"n.	c #D8D6C0",
"o.	c #AFA15B",
"p.	c #EEEA08",
"q.	c #FCFC04",
"r.	c #FBFA04",
"s.	c #EFE71A",
"t.	c #B39D7E",
"u.	c #967856",
"v.	c #B17A31",
"w.	c #C71A0F",
"x.	c #632A22",
"y.	c #442724",
"z.	c #A91413",
"A.	c #CE716F",
"B.	c #AFA5A3",
"C.	c #956C76",
"D.	c #8B8279",
"E.	c #B3A79F",
"F.	c #B0854F",
"G.	c #C59A7C",
"H.	c #A38255",
"I.	c #D9CA2E",
"J.	c #F8FA04",
"K.	c #F7F10B",
"L.	c #D4A231",
"M.	c #9C6C56",
"N.	c #B08551",
"O.	c #B36A33",
"P.	c #B2130A",
"Q.	c #442932",
"R.	c #5B4255",
"S.	c #7F362E",
"T.	c #9D464C",
"U.	c #A1817D",
"V.	c #8C7F83",
"W.	c #868480",
"X.	c #BDAEAA",
"Y.	c #9F7634",
"Z.	c #BF9775",
"`.	c #977956",
" +	c #B2A64E",
".+	c #F4F806",
"++	c #F5F30C",
"@+	c #BB9421",
"#+	c #B0A59B",
"$+	c #8F8C7E",
"%+	c #C68B2E",
"&+	c #AE3314",
"*+	c #712B35",
"=+	c #6E3954",
"-+	c #8E513B",
";+	c #896664",
">+	c #8F5D5B",
",+	c #C8B6B2",
"'+	c #BDA4A2",
")+	c #BEA498",
"!+	c #A48828",
"~+	c #CEB3A2",
"{+	c #7C7C6C",
"]+	c #C1B72C",
"^+	c #FAFA04",
"/+	c #EDDE0A",
"(+	c #C78671",
"_+	c #AE3D39",
":+	c #C08E1C",
"<+	c #A25B2F",
"[+	c #C75C3F",
"}+	c #A84635",
"|+	c #8D414B",
"1+	c #856969",
"2+	c #78363E",
"3+	c #A14132",
"4+	c #A43F39",
"5+	c #AD3726",
"6+	c #C58836",
"7+	c #C24937",
"8+	c #AF472F",
"9+	c #E3C520",
"0+	c #F2F40D",
"a+	c #BA9E2E",
"b+	c #C34A46",
"c+	c #9C562D",
"d+	c #C6C311",
"e+	c #BF6F25",
"f+	c #EE803A",
"g+	c #D28031",
"h+	c #92373B",
"i+	c #794149",
"j+	c #692224",
"k+	c #A94B27",
"l+	c #943725",
"m+	c #A8381C",
"n+	c #E2CF1E",
"o+	c #DEBF80",
"p+	c #A34442",
"q+	c #BA8B30",
"r+	c #A29317",
"s+	c #B4A3A1",
"t+	c #A7A168",
"u+	c #C7C70C",
"v+	c #C07C2A",
"w+	c #EF7F38",
"x+	c #EB8031",
"y+	c #C86331",
"z+	c #894A36",
"A+	c #6F4432",
"B+	c #6A402A",
"C+	c #964F29",
"D+	c #A53C21",
"E+	c #E9D51C",
"F+	c #F9F1A5",
"G+	c #8A807B",
"H+	c #B2A829",
"I+	c #E9E904",
"J+	c #CEC6B6",
"K+	c #AAA069",
"L+	c #CAC80E",
"M+	c #BA7431",
"N+	c #EC8A2E",
"O+	c #E27024",
"P+	c #A15536",
"Q+	c #914532",
"R+	c #7D412A",
"S+	c #9E4728",
"T+	c #A63123",
"U+	c #E7D91B",
"V+	c #D8C985",
"W+	c #988F61",
"X+	c #DFDB0D",
"Y+	c #F5EF0B",
"Z+	c #A18F62",
"`+	c #9A8050",
" @	c #D6CA24",
".@	c #B7773B",
"+@	c #EB7B33",
"@@	c #D5652D",
"#@	c #9D5C40",
"$@	c #851E24",
"%@	c #BB3A1C",
"&@	c #84312E",
"*@	c #B0542E",
"=@	c #DAC61A",
"-@	c #80774B",
";@	c #857853",
">@	c #D0CE29",
",@	c #C6BD2E",
"'@	c #71635A",
")@	c #73635D",
"!@	c #B4AF4B",
"~@	c #C4AC32",
"{@	c #B86B41",
"]@	c #D07736",
"^@	c #B87F5F",
"/@	c #AF9050",
"(@	c #AA413B",
"_@	c #952726",
":@	c #983932",
"<@	c #D7BA2B",
"[@	c #A2A753",
"}@	c #555480",
"|@	c #515186",
"1@	c #9C986D",
"2@	c #B8B444",
"3@	c #6B6F8E",
"4@	c #72778D",
"5@	c #ACA54A",
"6@	c #F1F115",
"7@	c #DDBC29",
"8@	c #B69653",
"9@	c #BDB593",
"0@	c #978D68",
"a@	c #B09E7C",
"b@	c #CDAA6C",
"c@	c #E3D51B",
"d@	c #FCFC03",
"e@	c #A3AE55",
"f@	c #737A84",
"g@	c #82817D",
"h@	c #989166",
"i@	c #F8F805",
"j@	c #E8E21E",
"k@	c #DFDA27",
"l@	c #E2E729",
"m@	c #E6E61A",
"n@	c #F5F703",
"o@	c #F3EE31",
"p@	c #E7E53D",
"q@	c #ECE82D",
"r@	c #FBF809",
"s@	c #F6F50A",
"t@	c #E7CB10",
"u@	c #FC1103",
". + . + . + . + . + . + . + . + . + . + . + . + . + . + . + . + . + . + . + . + . + . + . + . + . + . + . + . + . + . + . + . + ",
"+ @ + @ + @ + @ + @ + @ + @ + @ + @ + @ + @ + @ + @ + @ + @ + @ + @ + @ + @ + @ + @ + @ + @ + @ + @ + @ + @ + @ + @ + @ + @ + @ ",
". . . . . . . . . . . . . . . . . . . . . . . . . . . . . . . . . . . . . . . . . . . . . . . . . . . . . . . . . . . . . . . . ",
"@ @ @ @ @ @ @ @ @ @ @ @ @ @ @ @ @ @ @ @ @ @ @ @ @ @ @ @ @ @ @ @ @ @ @ @ @ @ @ @ @ @ @ @ @ @ @ @ @ @ @ @ @ @ @ @ @ @ @ @ @ @ @ @ ",
"@ @ @ @ @ @ @ @ @ @ @ @ @ @ @ @ @ @ @ @ @ @ @ @ @ @ @ @ @ @ @ @ @ @ @ @ @ @ @ @ @ @ @ @ @ @ @ @ @ @ @ @ @ @ @ @ @ @ @ @ @ @ @ @ ",
"@ @ @ @ @ @ @ @ @ @ @ @ @ @ @ @ @ @ @ @ @ @ @ @ @ @ @ @ @ @ @ @ @ @ @ @ @ @ @ @ @ @ @ @ @ @ @ @ @ @ @ @ @ @ @ @ @ @ @ @ @ @ @ @ ",
"@ @ @ @ @ @ @ @ @ @ @ @ @ @ @ @ @ @ @ @ @ @ @ @ @ @ @ @ @ @ @ @ @ @ @ @ @ @ @ @ @ @ @ @ @ @ @ @ @ @ @ @ @ @ @ @ @ @ @ @ @ @ @ @ ",
". . . . . . . . . . . . . . . . . . . . . . . . . . . . . . . . . . . . . . . . . . . . . . . . . . . . . . . . . . . . . . . . ",
". . . . . . . . . . . . . . . . . . . . . . . . . . . . . . . . . . . . . . . . . . . . . . . . . . . . . . . . . . . . . . . . ",
". . . . . . . . . . . . . . . . . . . . . . . . . . . . . . . . . . . . . . . . . . . . . . . . . . . . . . . . . . . . . . . . ",
". . . . . . . . . . . . . . . . . . . . . . . . . . . . . . . . . . . . . . . . . . . . . . . . . . . . . . . . . . . . . . . . ",
"# # # # # # # # # # # # # # # # # # # # # # # # # # # # # # # # # # # # # # # # # # # # # # # # # # # # # # # # # # # # # # # # ",
"$ $ $ $ $ $ $ $ $ $ $ $ $ $ $ $ $ $ $ $ $ $ % & $ $ $ $ $ $ $ $ $ $ $ $ $ $ $ $ $ $ $ $ $ $ $ $ $ $ $ $ $ $ $ $ $ $ $ $ $ $ $ $ ",
"* * = * = * = * = * = * = * = * = * * = * * - ; * * * * * * = * = * = * = * = * = * = * = * = * = * = * = * = * = * = * = * = * ",
"* * > * > * > * > * > * > * > * , ' * > * * ) ! * * * * * * > * > * > * > * > * > * > * > * > * > * > * > * > * > * > * > * > * ",
"* * * * * * * * * * * * * * * * ~ ~ { ] ^ / ( _ : < [ } * * * * * * * * * * * * * * * * * * * * * * * * * * * * * * * * * * * * ",
"* * * * * * * * * * * * * * * * * * | 1 2 3 4 5 6 7 8 9 0 * * * * * * * * * * * * * * * * * * * * * * * * * * * * * * * * * * * ",
"* * * * * * * * * * * * * * * * * * a b c d e f g h i j k * * * * * * * * * * * * * * * * * * * * * * * * * * * * * * * * * * * ",
"* * * * * * * * * * * * * * * * l l m n o p q r s t u v w * x * * * * * * * * * * * * * * * * * * * * * * * * * * * * * * * * * ",
"* * * * * * * * * * * * * * * * y z A B C D E F G H I J K L M N * * * * * * * * * * * * * * * * * * * * * * * * * * * * * * * * ",
"* * * * * * * * * * * * * * * O P Q R S T U V W X Y Z `  ...+.@.* * * * * * * * * * * * * * * * * * * * * * * * * * * * * * * * ",
"* * * * * * * * * * * * * * * #.$.%.&.*.=.-.;.>.,.'.).!.~.{.].^.* * * * * * * * * * * * * * * * * * * * * * * * * * * * * * * * ",
"* * * * * * * * * * * * * * * /.(._.:.<.[.}.|.1.2.3.4.5.6.7.8.9.* * * * * * * * * * * * * * * * * * * * * * * * * * * * * * * * ",
"* * * * * * * * * * * * * * * 0.a.b.c.d.e.f.g.h.i.j.k.l.m.n.o.p.* * * * * * * * * * * * * * * * * * * * * * * * * * * * * * * * ",
"q.q.q.q.q.q.q.q.q.q.q.q.q.q.r.s.t.u.v.w.x.y.z.A.B.C.D.E.F.G.H.I.q.J.q.q.q.q.q.q.q.q.q.q.q.q.q.q.q.q.q.q.q.q.q.q.q.q.q.q.q.q.q.q.",
"q.q.q.q.q.q.q.q.q.q.q.q.q.q.K.L.M.N.O.P.Q.R.S.T.U.V.W.X.Y.Z.`. +q..+q.q.q.q.q.q.q.q.q.q.q.q.q.q.q.q.q.q.q.q.q.q.q.q.q.q.q.q.q.q.",
"q.q.q.q.q.q.q.q.q.q.q.q.q.q.++@+#+$+%+&+*+=+-+;+>+,+'+)+!+~+{+]+q.q.q.q.q.q.q.q.q.q.q.q.q.q.q.q.q.q.q.q.q.q.q.q.q.q.q.q.q.q.q.q.",
"q.q.q.q.q.q.q.q.q.q.q.q.q.q.^+/+(+_+:+<+[+}+|+1+2+3+4+5+6+7+8+9+q.q.q.q.q.q.q.q.q.q.q.q.q.q.q.q.q.q.q.q.q.q.q.q.q.q.q.q.q.q.q.q.",
"q.q.q.q.q.q.q.q.q.q.q.q.q.q.0+a+b+c+d+e+f+g+h+i+j+k+l+m+n+o+p+q+q.q.q.q.q.q.q.q.q.q.q.q.q.q.q.q.q.q.q.q.q.q.q.q.q.q.q.q.q.q.q.q.",
"q.q.q.q.q.q.q.q.q.q.q.q.q.q.{ r+s+t+u+v+w+x+y+z+A+B+C+D+E+F+G+H+q.q.q.q.q.q.q.q.q.q.q.q.q.q.q.q.q.q.q.q.q.q.q.q.q.q.q.q.q.q.q.q.",
"q.q.q.q.q.q.q.q.q.q.q.q.q.q.q.I+J+K+L+M+w+N+O+P+Q+R+S+T+U+V+W+X+q.q.q.q.q.q.q.q.q.q.q.q.q.q.q.q.q.q.q.q.q.q.q.q.q.q.q.q.q.q.q.q.",
"q.q.q.q.q.q.q.q.q.q.q.q.q.q.q.Y+Z+`+ @.@w++@@@#@$@%@&@*@=@-@;@>@q.q.q.q.q.q.q.q.q.q.q.q.q.q.q.q.q.q.q.q.q.q.q.q.q.q.q.q.q.q.q.q.",
"q.q.q.q.q.q.q.q.q.q.q.q.q.q.q.,@'@)@!@~@{@]@^@/@(@_@:@<@[@}@|@1@q.q.q.q.q.q.q.q.q.q.q.q.q.q.q.q.q.q.q.q.q.q.q.q.q.q.q.q.q.q.q.q.",
"q.q.q.q.q.q.q.q.q.q.q.q.q.q.^+2@3@4@5@6@7@8@9@0@a@b@c@d@e@f@g@h@q.q.q.q.q.q.q.q.q.q.q.q.q.q.q.q.q.q.q.q.q.q.q.q.q.q.q.q.q.q.q.q.",
"q.q.q.q.q.q.q.q.q.q.q.q.q.q.i@j@k@l@m@n@q.q.o@p@q@r@q.q.i@i@s@q.q.q.q.q.q.q.q.q.q.q.q.q.q.q.q.q.q.q.q.q.q.q.q.q.q.q.q.q.q.q.q.q.",
"t@t@t@t@t@t@t@t@t@t@t@t@t@t@t@t@t@t@t@t@t@t@t@t@t@t@t@t@t@t@t@t@t@t@t@t@t@t@t@t@t@t@t@t@t@t@t@t@t@t@t@t@t@t@t@t@t@t@t@t@t@t@t@t@",
"u@u@u@u@u@u@u@u@u@u@u@u@u@u@u@u@u@u@u@u@u@u@u@u@u@u@u@u@u@u@u@u@u@u@u@u@u@u@u@u@u@u@u@u@u@u@u@u@u@u@u@u@u@u@u@u@u@u@u@u@u@u@u@u@",
". . . . . . . . . . . . . . . . . . . . . . . . . . . . . . . . . . . . . . . . . . . . . . . . . . . . . . . . . . . . . . . . ",
". . . . . . . . . . . . . . . . . . . . . . . . . . . . . . . . . . . . . . . . . . . . . . . . . . . . . . . . . . . . . . . . ",
". . . . . . . . . . . . . . . . . . . . . . . . . . . . . . . . . . . . . . . . . . . . . . . . . . . . . . . . . . . . . . . . ",
". . . . . . . . . . . . . . . . . . . . . . . . . . . . . . . . . . . . . . . . . . . . . . . . . . . . . . . . . . . . . . . . ",
". . . . . . . . . . . . . . . . . . . . . . . . . . . . . . . . . . . . . . . . . . . . . . . . . . . . . . . . . . . . . . . . ",
". . . . . . . . . . . . . . . . . . . . . . . . . . . . . . . . . . . . . . . . . . . . . . . . . . . . . . . . . . . . . . . . ",
". . . . . . . . . . . . . . . . . . . . . . . . . . . . . . . . . . . . . . . . . . . . . . . . . . . . . . . . . . . . . . . . ",
". . . . . . . . . . . . . . . . . . . . . . . . . . . . . . . . . . . . . . . . . . . . . . . . . . . . . . . . . . . . . . . . ",
". . . . . . . . . . . . . . . . . . . . . . . . . . . . . . . . . . . . . . . . . . . . . . . . . . . . . . . . . . . . . . . . ",
". . . . . . . . . . . . . . . . . . . . . . . . . . . . . . . . . . . . . . . . . . . . . . . . . . . . . . . . . . . . . . . . ",
". . . . . . . . . . . . . . . . . . . . . . . . . . . . . . . . . . . . . . . . . . . . . . . . . . . . . . . . . . . . . . . . "};
