/* XPM */
static char * fr_xpm[] = {
"64 48 6 1",
" 	c None",
".	c #0000B1",
"+	c #B5B5E8",
"@	c #FFFFFF",
"#	c #FFB5B5",
"$	c #FF0000",
".....................+@@@@@@@@@@@@@@@@@@@@#$$$$$$$$$$$$$$$$$$$$$",
".....................+@@@@@@@@@@@@@@@@@@@@#$$$$$$$$$$$$$$$$$$$$$",
".....................+@@@@@@@@@@@@@@@@@@@@#$$$$$$$$$$$$$$$$$$$$$",
".....................+@@@@@@@@@@@@@@@@@@@@#$$$$$$$$$$$$$$$$$$$$$",
".....................+@@@@@@@@@@@@@@@@@@@@#$$$$$$$$$$$$$$$$$$$$$",
".....................+@@@@@@@@@@@@@@@@@@@@#$$$$$$$$$$$$$$$$$$$$$",
".....................+@@@@@@@@@@@@@@@@@@@@#$$$$$$$$$$$$$$$$$$$$$",
".....................+@@@@@@@@@@@@@@@@@@@@#$$$$$$$$$$$$$$$$$$$$$",
".....................+@@@@@@@@@@@@@@@@@@@@#$$$$$$$$$$$$$$$$$$$$$",
".....................+@@@@@@@@@@@@@@@@@@@@#$$$$$$$$$$$$$$$$$$$$$",
".....................+@@@@@@@@@@@@@@@@@@@@#$$$$$$$$$$$$$$$$$$$$$",
".....................+@@@@@@@@@@@@@@@@@@@@#$$$$$$$$$$$$$$$$$$$$$",
".....................+@@@@@@@@@@@@@@@@@@@@#$$$$$$$$$$$$$$$$$$$$$",
".....................+@@@@@@@@@@@@@@@@@@@@#$$$$$$$$$$$$$$$$$$$$$",
".....................+@@@@@@@@@@@@@@@@@@@@#$$$$$$$$$$$$$$$$$$$$$",
".....................+@@@@@@@@@@@@@@@@@@@@#$$$$$$$$$$$$$$$$$$$$$",
".....................+@@@@@@@@@@@@@@@@@@@@#$$$$$$$$$$$$$$$$$$$$$",
".....................+@@@@@@@@@@@@@@@@@@@@#$$$$$$$$$$$$$$$$$$$$$",
".....................+@@@@@@@@@@@@@@@@@@@@#$$$$$$$$$$$$$$$$$$$$$",
".....................+@@@@@@@@@@@@@@@@@@@@#$$$$$$$$$$$$$$$$$$$$$",
".....................+@@@@@@@@@@@@@@@@@@@@#$$$$$$$$$$$$$$$$$$$$$",
".....................+@@@@@@@@@@@@@@@@@@@@#$$$$$$$$$$$$$$$$$$$$$",
".....................+@@@@@@@@@@@@@@@@@@@@#$$$$$$$$$$$$$$$$$$$$$",
".....................+@@@@@@@@@@@@@@@@@@@@#$$$$$$$$$$$$$$$$$$$$$",
".....................+@@@@@@@@@@@@@@@@@@@@#$$$$$$$$$$$$$$$$$$$$$",
".....................+@@@@@@@@@@@@@@@@@@@@#$$$$$$$$$$$$$$$$$$$$$",
".....................+@@@@@@@@@@@@@@@@@@@@#$$$$$$$$$$$$$$$$$$$$$",
".....................+@@@@@@@@@@@@@@@@@@@@#$$$$$$$$$$$$$$$$$$$$$",
".....................+@@@@@@@@@@@@@@@@@@@@#$$$$$$$$$$$$$$$$$$$$$",
".....................+@@@@@@@@@@@@@@@@@@@@#$$$$$$$$$$$$$$$$$$$$$",
".....................+@@@@@@@@@@@@@@@@@@@@#$$$$$$$$$$$$$$$$$$$$$",
".....................+@@@@@@@@@@@@@@@@@@@@#$$$$$$$$$$$$$$$$$$$$$",
".....................+@@@@@@@@@@@@@@@@@@@@#$$$$$$$$$$$$$$$$$$$$$",
".....................+@@@@@@@@@@@@@@@@@@@@#$$$$$$$$$$$$$$$$$$$$$",
".....................+@@@@@@@@@@@@@@@@@@@@#$$$$$$$$$$$$$$$$$$$$$",
".....................+@@@@@@@@@@@@@@@@@@@@#$$$$$$$$$$$$$$$$$$$$$",
".....................+@@@@@@@@@@@@@@@@@@@@#$$$$$$$$$$$$$$$$$$$$$",
".....................+@@@@@@@@@@@@@@@@@@@@#$$$$$$$$$$$$$$$$$$$$$",
".....................+@@@@@@@@@@@@@@@@@@@@#$$$$$$$$$$$$$$$$$$$$$",
".....................+@@@@@@@@@@@@@@@@@@@@#$$$$$$$$$$$$$$$$$$$$$",
".....................+@@@@@@@@@@@@@@@@@@@@#$$$$$$$$$$$$$$$$$$$$$",
".....................+@@@@@@@@@@@@@@@@@@@@#$$$$$$$$$$$$$$$$$$$$$",
".....................+@@@@@@@@@@@@@@@@@@@@#$$$$$$$$$$$$$$$$$$$$$",
".....................+@@@@@@@@@@@@@@@@@@@@#$$$$$$$$$$$$$$$$$$$$$",
".....................+@@@@@@@@@@@@@@@@@@@@#$$$$$$$$$$$$$$$$$$$$$",
".....................+@@@@@@@@@@@@@@@@@@@@#$$$$$$$$$$$$$$$$$$$$$",
".....................+@@@@@@@@@@@@@@@@@@@@#$$$$$$$$$$$$$$$$$$$$$",
".....................+@@@@@@@@@@@@@@@@@@@@#$$$$$$$$$$$$$$$$$$$$$"};
