/* XPM */
static char * it_xpm[] = {
"64 48 13 1",
" 	c None",
".	c #018108",
"+	c #9ECFA1",
"@	c #FFFFFF",
"#	c #FEE4E3",
"$	c #FD0C00",
"%	c #008207",
"&	c #FC0C00",
"*	c #018208",
"=	c #008107",
"-	c #FD0B00",
";	c #FEFEFE",
">	c #FC0B00",
".....................+@@@@@@@@@@@@@@@@@@@@#$$$$$$$$$$$$$$$$$$$$$",
"%%%%%%%%%%%%%%%%%%%%%+@@@@@@@@@@@@@@@@@@@@#&&&&&&&&&&&&&&&&&&&&&",
"*********************+@@@@@@@@@@@@@@@@@@@@#$$$$$$$$$$$$$$$$$$$$$",
"=====================+@@@@@@@@@@@@@@@@@@@@#$$$$$$$$$$$$$$$$$$$$$",
"=====================+@@@@@@@@@@@@@@@@@@@@#&&&&&&&&&&&&&&&&&&&&&",
"*********************+@@@@@@@@@@@@@@@@@@@@#$$$$$$$$$$$$$$$$$$$$$",
"*********************+@@@@@@@@@@@@@@@@@@@@#$$$$$$$$$$$$$$$$$$$$$",
"*********************+@@@@@@@@@@@@@@@@@@@@#---------------------",
"*********************+@@@@@@@@@@@@@@@@@@@@#$$$$$$$$$$$$$$$$$$$$$",
"*********************+;@@;@;@;@@@@;@;@;@@;#$$$$$$$$$$$$$$$$$$$$$",
"=====================+;;;;;;;;;;;;;;;;;;;;#>>>>>>>>>>>>>>>>>>>>>",
"=====================+;;;;;;;;;;;;;;;;;;;;#>>>>>>>>>>>>>>>>>>>>>",
"=====================+;;;;;;;;;;;;;;;;;;;;#&&&&&&&&&&&&&&&&&&&&&",
"=====================+;;;;;;;;;;;;;;;;;;;;#>>>>>>>>>>>>>>>>>>>>>",
"=====================+;;;;;;;;;;;;;;;;;;;;#>>>>>>>>>>>>>>>>>>>>>",
"=====================+;;;;;;;;;;;;;;;;;;;;#>>>>>>>>>>>>>>>>>>>>>",
"=====================+;;;;;;;;;;;;;;;;;;;;#>>&>&>>>>&>&>&>>>>&>&",
"=====================+;;;;;;;;;;;;;;;;;;;;#>>>>>>>>>>>>>>>>>>>>>",
"=====================+;;;;;;;;;;;;;;;;;;;;#>>>>>>>>>>>>>>>>>>>>>",
"=====================+;;;;;;;;;;;;;;;;;;;;#>>>>>>>>>>>>>>>>>>>>>",
"*********************+@@@@@@@@@@@@@@@@@@@@#$$$$$$$$$$$$$$$$$$$$$",
"*********************+@@@@@@@@@@@@@@@@@@@@#$$$$$$$$$$$$$$$$$$$$$",
"*********************+@@@@@@@@@@@@@@@@@@@@#$$$$$$$$$$$$$$$$$$$$$",
"*********************+@@@@@@@@@@@@@@@@@@@@#$$$$$$$$$$$$$$$$$$$$$",
"*********************+@@@@@@@@@@@@@@@@@@@@#$$$$$$$$$$$$$$$$$$$$$",
"*********************+@@@@@@@@@@@@@@@@@@@@#$$$$$$$$$$$$$$$$$$$$$",
"*********************+@@@@@@@@@@@@@@@@@@@@#$$$$$$$$$$$$$$$$$$$$$",
"*********************+@@@@@@@@@@@@@@@@@@@@#$$$$$$$$$$$$$$$$$$$$$",
"*********************+@@@@@@@@@@@@@@@@@@@@#$$$$$$$$$$$$$$$$$$$$$",
"*********************+@@@@@@@@@@@@@@@@@@@@#$$$$$$$$$$$$$$$$$$$$$",
"*********************+@@@@@@@@@@@@@@@@@@@@#$$$$$$$$$$$$$$$$$$$$$",
"*********************+@@@@@@@@@@@@@@@@@@@@#$$$$$$$$$$$$$$$$$$$$$",
"*********************+@@@@@@@@@@@@@@@@@@@@#$$$$$$$$$$$$$$$$$$$$$",
"*********************+@@@@@@@@@@@@@@@@@@@@#$$$$$$$$$$$$$$$$$$$$$",
"*********************+@@@@@@@@@@@@@@@@@@@@#$$$$$$$$$$$$$$$$$$$$$",
"*********************+@@@@@@@@@@@@@@@@@@@@#$$$$$$$$$$$$$$$$$$$$$",
"*********************+@@@@@@@@@@@@@@@@@@@@#$$$$$$$$$$$$$$$$$$$$$",
"*********************+@@@@@@@@@@@@@@@@@@@@#$$$$$$$$$$$$$$$$$$$$$",
"=====================+;;;;;;;;;;;;;;;;;;;;#>>>>>>>>>>>>>>>>>>>>>",
"=====================+;;;;;;;;;;;;;;;;;;;;#>>>>>>>>>>>>>>>>>>>>>",
"=====================+;;;;;;;;;;;;;;;;;;;;#>>>>>>>>>>>>>>>>>>>>>",
"=====================+;;;;;;;;;;;;;;;;;;;;#>>>>>>>>>>>>>>>>>>>>>",
"=====================+;;;;;;;;;;;;;;;;;;;;#>>>>>>>>>>>>>>>>>>>>>",
"=====================+;;;;;;;;;;;;;;;;;;;;#>>>>>>>>>>>>>>>>>>>>>",
"=====================+;;;;;;;;;;;;;;;;;;;;#>>>>>>>>>>>>>>>>>>>>>",
"=====================+;;;;;;;;;;;;;;;;;;;;#>>>>>>>>>>>>>>>>>>>>>",
"=====================+;;;;;;;;;;;;;;;;;;;;#>>>>>>>>>>>>>>>>>>>>>",
"=====================+;;;;;;;;;;;;;;;;;;;;#>>>>>>>>>>>>>>>>>>>>>"};
